<?xml version="1.0" encoding="UTF-8" standalone="no"?>
<svg xmlns="http://www.w3.org/2000/svg" width="46" height="42" viewBox="0 0 46 42">
  <path id="t" d="M 23.203,16.225 V 27.183 C 23.203,35.374 29.836,42 38,42 V 31.042 C 35.886,31.042 34.173,29.294 34.173,27.183 H 38 V 16.225 Z" style="fill:#cc0000;stroke:none"/>
  <path id="o" d="M 36.594,14.787 H 25.651 C 25.651,12.678 23.943,10.968 21.797,10.968 19.687,10.968 17.943,12.678 17.943,14.787 17.943,16.934 19.687,18.643 21.797,18.643 V 29.594 C 13.653,29.594 7,22.972 7,14.787 7,6.6388 13.653,0 21.797,0 29.976,0 36.594,6.6388 36.594,14.787 Z" style="fill:#0088cc;stroke:none"/>
</svg>
